<svg width="270" height="46" viewBox="0 0 270 46" fill="none" xmlns="http://www.w3.org/2000/svg">
<rect x="0.6875" y="0.504883" width="269" height="45" rx="10" fill="#EB5F2A"/>
<path d="M108.72 16.7849H113.92V18.1449H108.72V16.7849ZM108.72 20.6849H113.96V22.0449H108.72V20.6849ZM113.3 13.4849H114.96V26.8649H113.3V13.4849ZM103.34 29.8049H115.38V31.1649H103.34V29.8049ZM103.34 25.5649H105V30.4849H103.34V25.5649ZM100.96 14.6849H102.62V17.8649H107.5V14.6849H109.14V23.7849H100.96V14.6849ZM102.62 19.1649V22.4449H107.5V19.1649H102.62ZM126.679 16.8049H131.519V18.1449H126.679V16.8049ZM126.519 20.5649H131.399V21.9249H126.519V20.5649ZM131.239 13.4849H132.899V24.3049H131.239V13.4849ZM125.579 14.8249H127.339C127.339 16.3715 126.999 17.7649 126.319 19.0049C125.652 20.2449 124.686 21.3115 123.419 22.2049C122.166 23.0849 120.672 23.7849 118.939 24.3049L118.259 22.9849C119.792 22.5315 121.106 21.9449 122.199 21.2249C123.292 20.4915 124.126 19.6515 124.699 18.7049C125.286 17.7449 125.579 16.6915 125.579 15.5449V14.8249ZM119.179 14.8249H126.699V16.1849H119.179V14.8249ZM127.019 24.5049C128.246 24.5049 129.299 24.6449 130.179 24.9249C131.072 25.2049 131.766 25.6049 132.259 26.1249C132.752 26.6449 132.999 27.2649 132.999 27.9849C132.999 28.7182 132.752 29.3449 132.259 29.8649C131.766 30.3715 131.072 30.7649 130.179 31.0449C129.299 31.3382 128.246 31.4849 127.019 31.4849C125.806 31.4849 124.746 31.3382 123.839 31.0449C122.946 30.7649 122.252 30.3715 121.759 29.8649C121.266 29.3449 121.019 28.7182 121.019 27.9849C121.019 27.2649 121.266 26.6449 121.759 26.1249C122.252 25.6049 122.946 25.2049 123.839 24.9249C124.746 24.6449 125.806 24.5049 127.019 24.5049ZM127.019 25.8249C126.139 25.8249 125.372 25.9115 124.719 26.0849C124.066 26.2582 123.559 26.5049 123.199 26.8249C122.839 27.1449 122.659 27.5315 122.659 27.9849C122.659 28.4382 122.839 28.8249 123.199 29.1449C123.559 29.4649 124.066 29.7115 124.719 29.8849C125.372 30.0582 126.139 30.1449 127.019 30.1449C127.912 30.1449 128.679 30.0582 129.319 29.8849C129.959 29.7115 130.459 29.4649 130.819 29.1449C131.179 28.8249 131.359 28.4382 131.359 27.9849C131.359 27.5315 131.179 27.1449 130.819 26.8249C130.459 26.5049 129.959 26.2582 129.319 26.0849C128.679 25.9115 127.912 25.8249 127.019 25.8249ZM148.218 13.4649H149.858V31.5649H148.218V13.4649ZM149.478 20.9049H152.818V22.3049H149.478V20.9049ZM135.858 16.3649H146.518V17.7249H135.858V16.3649ZM141.278 19.2049C142.131 19.2049 142.884 19.3849 143.538 19.7449C144.204 20.1049 144.724 20.5982 145.098 21.2249C145.484 21.8382 145.678 22.5515 145.678 23.3649C145.678 24.1782 145.484 24.8982 145.098 25.5249C144.724 26.1515 144.204 26.6449 143.538 27.0049C142.884 27.3515 142.131 27.5249 141.278 27.5249C140.424 27.5249 139.664 27.3515 138.998 27.0049C138.344 26.6449 137.824 26.1515 137.438 25.5249C137.051 24.8982 136.858 24.1782 136.858 23.3649C136.858 22.5515 137.051 21.8382 137.438 21.2249C137.824 20.5982 138.344 20.1049 138.998 19.7449C139.664 19.3849 140.424 19.2049 141.278 19.2049ZM141.278 20.5849C140.731 20.5849 140.244 20.7049 139.818 20.9449C139.391 21.1849 139.051 21.5115 138.798 21.9249C138.558 22.3382 138.438 22.8182 138.438 23.3649C138.438 23.9115 138.558 24.3982 138.798 24.8249C139.051 25.2382 139.391 25.5649 139.818 25.8049C140.244 26.0315 140.731 26.1449 141.278 26.1449C141.811 26.1449 142.291 26.0315 142.718 25.8049C143.144 25.5649 143.478 25.2382 143.718 24.8249C143.971 24.3982 144.098 23.9115 144.098 23.3649C144.098 22.8182 143.971 22.3382 143.718 21.9249C143.478 21.5115 143.144 21.1849 142.718 20.9449C142.291 20.7049 141.811 20.5849 141.278 20.5849ZM140.418 13.6849H142.078V16.9649H140.418V13.6849ZM167.076 13.4649H168.736V31.5649H167.076V13.4649ZM161.776 15.4249H163.416C163.416 16.7315 163.256 17.9915 162.936 19.2049C162.629 20.4182 162.143 21.5715 161.476 22.6649C160.809 23.7449 159.943 24.7515 158.876 25.6849C157.809 26.6182 156.516 27.4515 154.996 28.1849L154.116 26.8449C155.863 26.0049 157.303 25.0249 158.436 23.9049C159.569 22.7849 160.409 21.5382 160.956 20.1649C161.503 18.7782 161.776 17.2849 161.776 15.6849V15.4249ZM154.956 15.4249H162.476V16.7649H154.956V15.4249Z" fill="white"/>
</svg>
