<svg width="233" height="45" viewBox="0 0 233 45" fill="none" xmlns="http://www.w3.org/2000/svg">
<rect width="233" height="45" rx="10" fill="#EB5F2A"/>
<path d="M104.012 20.48H105.672V23.22H104.012V20.48ZM104.792 13.8C105.658 13.8 106.425 13.9533 107.092 14.26C107.772 14.5533 108.298 14.9667 108.672 15.5C109.058 16.0333 109.252 16.6533 109.252 17.36C109.252 18.0667 109.058 18.6933 108.672 19.24C108.298 19.7733 107.772 20.1933 107.092 20.5C106.425 20.7933 105.658 20.94 104.792 20.94C103.925 20.94 103.152 20.7933 102.472 20.5C101.805 20.1933 101.278 19.7733 100.892 19.24C100.518 18.6933 100.332 18.0667 100.332 17.36C100.332 16.6533 100.518 16.0333 100.892 15.5C101.278 14.9667 101.805 14.5533 102.472 14.26C103.152 13.9533 103.925 13.8 104.792 13.8ZM104.792 15.08C104.232 15.08 103.732 15.1733 103.292 15.36C102.852 15.5467 102.505 15.8133 102.252 16.16C102.012 16.5067 101.892 16.9067 101.892 17.36C101.892 17.8133 102.012 18.2133 102.252 18.56C102.505 18.9067 102.852 19.18 103.292 19.38C103.732 19.5667 104.232 19.66 104.792 19.66C105.365 19.66 105.865 19.5667 106.292 19.38C106.732 19.18 107.072 18.9067 107.312 18.56C107.565 18.2133 107.692 17.8133 107.692 17.36C107.692 16.9067 107.565 16.5067 107.312 16.16C107.072 15.8133 106.732 15.5467 106.292 15.36C105.865 15.1733 105.365 15.08 104.792 15.08ZM111.692 12.98H113.352V26.82H111.692V12.98ZM112.652 19.08H115.992V20.48H112.652V19.08ZM101.912 29.28H113.992V30.64H101.912V29.28ZM101.912 25.64H103.572V29.88H101.912V25.64ZM99.5115 24.14L99.3115 22.76C100.365 22.76 101.525 22.7533 102.792 22.74C104.072 22.7133 105.378 22.66 106.712 22.58C108.045 22.4867 109.325 22.3467 110.552 22.16L110.672 23.38C109.418 23.6067 108.125 23.7733 106.792 23.88C105.472 23.9867 104.185 24.06 102.932 24.1C101.692 24.1267 100.552 24.14 99.5115 24.14ZM121.85 23.56H123.47V28H121.85V23.56ZM127.63 23.54H129.25V27.98H127.63V23.54ZM117.27 27.44H133.67V28.82H117.27V27.44ZM119.27 14.3H131.63V19.78H120.95V23.4H119.31V18.44H129.99V15.66H119.27V14.3ZM119.31 22.68H132.05V24.04H119.31V22.68Z" fill="white"/>
</svg>
