<svg width="26" height="26" viewBox="0 0 26 26" fill="none" xmlns="http://www.w3.org/2000/svg">
<path d="M11.565 21.3753C12.1017 21.0781 14.32 19.7999 16.4905 17.899C18.946 15.7486 21.0669 13.0386 21.0675 10.2249L11.565 21.3753ZM11.565 21.3753C11.0282 21.0781 8.80997 19.7999 6.63944 17.899C4.1838 15.7485 2.06278 13.0382 2.0625 10.2243C2.06409 8.94797 2.57183 7.72432 3.47437 6.82178C4.37691 5.91924 5.60056 5.4115 6.87692 5.40991C8.52084 5.41007 9.91048 6.11206 10.7653 7.25055L11.565 8.31561L12.3647 7.25055C13.2195 6.11206 14.6091 5.41007 16.253 5.40991C17.5294 5.4115 18.753 5.91924 19.6556 6.82178C20.5582 7.72444 21.066 8.94828 21.0675 10.2248L11.565 21.3753Z" stroke="#D9D9D9" stroke-width="2"/>
</svg>
