<svg width="26" height="26" viewBox="0 0 26 26" fill="none" xmlns="http://www.w3.org/2000/svg">
<path d="M22.0675 10.4345C22.0675 16.9985 12.3348 22.3117 11.9204 22.5311C11.8111 22.5898 11.689 22.6206 11.565 22.6206C11.4409 22.6206 11.3188 22.5898 11.2096 22.5311C10.7951 22.3117 1.0625 16.9985 1.0625 10.4345C1.06424 8.89308 1.67733 7.4153 2.76726 6.32537C3.8572 5.23543 5.33497 4.62234 6.87637 4.62061C8.81277 4.62061 10.5082 5.4533 11.565 6.86082C12.6218 5.4533 14.3172 4.62061 16.2536 4.62061C17.795 4.62234 19.2728 5.23543 20.3627 6.32537C21.4526 7.4153 22.0657 8.89308 22.0675 10.4345Z" fill="#EB5F2A"/>
</svg>
