<svg width="22" height="19" viewBox="0 0 22 19" fill="none" xmlns="http://www.w3.org/2000/svg">
<path d="M21.5675 6.71524C21.5675 13.2793 11.8348 18.5924 11.4204 18.8118C11.3111 18.8706 11.189 18.9014 11.065 18.9014C10.9409 18.9014 10.8188 18.8706 10.7096 18.8118C10.2951 18.5924 0.5625 13.2793 0.5625 6.71524C0.564237 5.17384 1.17733 3.69607 2.26726 2.60613C3.3572 1.51619 4.83497 0.903105 6.37637 0.901367C8.31277 0.901367 10.0082 1.73406 11.065 3.14158C12.1218 1.73406 13.8172 0.901367 15.7536 0.901367C17.295 0.903105 18.7728 1.51619 19.8627 2.60613C20.9526 3.69607 21.5657 5.17384 21.5675 6.71524Z" fill="#EB5F2A"/>
</svg>
